<?xml version="1.0" encoding="UTF-8" standalone="no"?>
<!-- Created with Inkscape (http://www.inkscape.org/) -->

<svg
   width="360"
   height="360"
   viewBox="0 0 360 360"
   version="1.1"
   id="svg1"
   inkscape:export-filename="C:\Users\max99\craft.png"
   inkscape:export-xdpi="9.6000004"
   inkscape:export-ydpi="9.6000004"
   inkscape:version="1.4 (86a8ad7, 2024-10-11)"
   sodipodi:docname="craft_accessible.svg"
   xmlns:inkscape="http://www.inkscape.org/namespaces/inkscape"
   xmlns:sodipodi="http://sodipodi.sourceforge.net/DTD/sodipodi-0.dtd"
   xmlns="http://www.w3.org/2000/svg"
   xmlns:svg="http://www.w3.org/2000/svg"
   xmlns:rdf="http://www.w3.org/1999/02/22-rdf-syntax-ns#"
   xmlns:cc="http://creativecommons.org/ns#"
   xmlns:dc="http://purl.org/dc/elements/1.1/">
  <defs
     id="defs1">
    <inkscape:path-effect
       effect="mirror_symmetry"
       start_point="192.29395,-128.8519"
       end_point="192.29395,261.1539"
       center_point="192.29395,66.150998"
       id="path-effect59"
       is_visible="true"
       lpeversion="1.2"
       lpesatellites=""
       mode="vertical"
       discard_orig_path="false"
       fuse_paths="true"
       oposite_fuse="false"
       split_items="false"
       split_open="false"
       link_styles="false" />
    <inkscape:path-effect
       effect="mirror_symmetry"
       start_point="183.35254,-30.919347"
       end_point="183.35254,359.08646"
       center_point="183.35254,164.08355"
       id="path-effect57"
       is_visible="true"
       lpeversion="1.2"
       lpesatellites=""
       mode="vertical"
       discard_orig_path="false"
       fuse_paths="true"
       oposite_fuse="false"
       split_items="false"
       split_open="false"
       link_styles="false" />
    <inkscape:path-effect
       effect="mirror_symmetry"
       start_point="183.08955,-100.21449"
       end_point="183.08955,259.78551"
       center_point="183.08955,79.78551"
       id="path-effect56"
       is_visible="true"
       lpeversion="1.2"
       lpesatellites=""
       mode="vertical"
       discard_orig_path="true"
       fuse_paths="true"
       oposite_fuse="true"
       split_items="false"
       split_open="false"
       link_styles="false" />
    <inkscape:path-effect
       effect="mirror_symmetry"
       start_point="183.35298,-0.37255363"
       end_point="183.35298,359.62745"
       center_point="183.35298,179.62745"
       id="path-effect54"
       is_visible="true"
       lpeversion="1.2"
       lpesatellites=""
       mode="vertical"
       discard_orig_path="true"
       fuse_paths="true"
       oposite_fuse="true"
       split_items="false"
       split_open="false"
       link_styles="false" />
    <inkscape:path-effect
       effect="fillet_chamfer"
       id="path-effect8"
       is_visible="true"
       lpeversion="1"
       nodesatellites_param="F,0,0,1,0,0,0,1 @ F,0,0,1,0,0,0,1 @ F,0,0,1,0,0,0,1 @ F,0,0,1,0,0,0,1 @ F,0,0,1,0,0,0,1 @ F,0,0,1,0,0,0,1 @ F,0,0,1,0,0,0,1 @ F,0,0,1,0,0,0,1"
       radius="0"
       unit="px"
       method="auto"
       mode="F"
       chamfer_steps="1"
       flexible="false"
       use_knot_distance="true"
       apply_no_radius="true"
       apply_with_radius="true"
       only_selected="false"
       hide_knots="false" />
    <inkscape:path-effect
       effect="fillet_chamfer"
       id="path-effect6"
       is_visible="true"
       lpeversion="1"
       nodesatellites_param="F,0,0,1,0,0,0,1 @ F,0,0,1,0,0,0,1 @ F,0,0,1,0,0,0,1 @ F,0,0,1,0,0,0,1 @ F,0,0,1,0,0,0,1 @ F,0,0,1,0,0,0,1 @ F,0,0,1,0,0,0,1 @ F,0,0,1,0,0,0,1"
       radius="0"
       unit="px"
       method="auto"
       mode="F"
       chamfer_steps="1"
       flexible="false"
       use_knot_distance="true"
       apply_no_radius="true"
       apply_with_radius="true"
       only_selected="false"
       hide_knots="false" />
  </defs>
  <sodipodi:namedview
     id="base"
     pagecolor="#ffffff"
     bordercolor="#000000"
     borderopacity="0.3"
     inkscape:pageopacity="0.0"
     inkscape:pageshadow="2"
     inkscape:zoom="2.6841774"
     inkscape:cx="146.22729"
     inkscape:cy="171.00211"
     inkscape:document-units="px"
     inkscape:showpageshadow="2"
     inkscape:pagecheckerboard="true"
     inkscape:deskcolor="#d1d1d1"
     showgrid="true"
     showguides="true"
     inkscape:window-width="2560"
     inkscape:window-height="1351"
     inkscape:window-x="3191"
     inkscape:window-y="-9"
     inkscape:window-maximized="1"
     inkscape:current-layer="svg1">
    <sodipodi:guide
       position="0,360"
       orientation="0,360"
       id="guide1"
       inkscape:locked="false" />
    <sodipodi:guide
       position="360,360"
       orientation="360,0"
       id="guide2"
       inkscape:locked="false" />
    <sodipodi:guide
       position="0,0"
       orientation="-360,0"
       id="guide4"
       inkscape:locked="false" />
    <sodipodi:guide
       position="72.275404,339.78897"
       orientation="0,-1"
       id="guide8"
       inkscape:locked="false" />
    <sodipodi:guide
       position="285.46922,20.324231"
       orientation="0,-1"
       id="guide9"
       inkscape:locked="false" />
    <sodipodi:guide
       position="20.257603,333.17614"
       orientation="1,0"
       id="guide10"
       inkscape:locked="false" />
    <sodipodi:guide
       position="339.72234,85.707392"
       orientation="1,0"
       id="guide11"
       inkscape:locked="false" />
    <sodipodi:guide
       position="360,360"
       orientation="0.70710678,-0.70710678"
       id="guide12"
       inkscape:locked="false" />
    <sodipodi:guide
       position="10.305381,349.69462"
       orientation="-0.70710678,-0.70710678"
       id="guide13"
       inkscape:locked="false" />
    <sodipodi:guide
       position="180.03956,194.20826"
       orientation="1,0"
       id="guide14"
       inkscape:locked="false" />
    <sodipodi:guide
       position="154.98231,180.14974"
       orientation="0,-1"
       id="guide15"
       inkscape:locked="false" />
    <sodipodi:guide
       position="180.76594,270.78602"
       orientation="0.70710678,-0.70710678"
       id="guide19"
       inkscape:locked="false" />
    <sodipodi:guide
       position="60,250"
       orientation="0.70710678,-0.70710678"
       id="guide20"
       inkscape:locked="false" />
    <sodipodi:guide
       position="286.4006,95.673202"
       orientation="0.70710678,-0.70710678"
       id="guide21"
       inkscape:locked="false" />
    <inkscape:grid
       id="grid30"
       units="px"
       originx="0"
       originy="0"
       spacingx="10"
       spacingy="10"
       empcolor="#0099e5"
       empopacity="0.30196078"
       color="#0099e5"
       opacity="0.14901961"
       empspacing="5"
       enabled="true"
       visible="true" />
    <sodipodi:guide
       position="180.03955,90.229091"
       orientation="0.70710678,-0.70710678"
       id="guide30"
       inkscape:locked="false" />
    <sodipodi:guide
       position="91.205785,179.18343"
       orientation="-0.70710678,-0.70710678"
       id="guide31"
       inkscape:locked="false" />
    <sodipodi:guide
       position="180.88119,269.22188"
       orientation="-0.70710678,-0.70710678"
       id="guide32"
       inkscape:locked="false" />
    <sodipodi:guide
       position="190,250"
       orientation="0.70710678,-0.70710678"
       id="guide33"
       inkscape:locked="false" />
    <sodipodi:guide
       position="230,170"
       orientation="0.70710678,-0.70710678"
       id="guide45"
       inkscape:locked="false" />
  </sodipodi:namedview>
  <metadata
     id="metadata1">
    <rdf:RDF>
      <cc:Work
         rdf:about="">
        <dc:format>image/svg+xml</dc:format>
        <dc:type
           rdf:resource="http://purl.org/dc/dcmitype/StillImage" />
      </cc:Work>
    </rdf:RDF>
  </metadata>
  <path
     id="rect6"
     transform="matrix(0.94094868,0,0,0.94094868,15.333978,15.333978)"
     d="m 36,0 h 278 c 19.944,0 36,16.056 36,36 v 278 c 0,19.944 -16.056,36 -36,36 H 36 C 16.056,350 0,333.944 0,314 V 36 C 0,16.056 16.056,0 36,0 Z"
     style="display:none;opacity:1;fill:#006861;fill-opacity:1;stroke:none;stroke-width:32.5926;stroke-linecap:round;stroke-linejoin:bevel;stroke-miterlimit:1;stroke-dasharray:none;stroke-opacity:1;paint-order:stroke fill markers"
     inkscape:label="ACC_BG" />
  <path
     id="path1"
     style="display:none;opacity:1;fill:#006861;fill-opacity:1;stroke:none;stroke-width:32.5926;stroke-linecap:round;stroke-linejoin:bevel;stroke-miterlimit:1;stroke-dasharray:none;stroke-opacity:1;paint-order:stroke fill markers"
     inkscape:label="ACC_BG_Cut"
     d="M 36.000907,6.7750773e-6 C 16.056907,6.7750773e-6 6.7750771e-6,16.056907 6.7750773e-6,36.000907 V 313.9991 C 6.7750773e-6,333.9431 16.056907,350 36.000907,350 H 313.9991 C 333.9431,350 350,333.9431 350,313.9991 V 36.000907 C 350,16.056907 333.9431,6.7750771e-6 313.9991,6.7750773e-6 Z M 26.213993,26.213993 H 58.096709 V 164.37243 H 26.213993 Z m 53.137861,0 H 111.64763 V 164.37243 H 79.351854 Z m 53.959836,0 h 31.06074 V 164.37243 h -31.06074 z m 52.31589,0 h 138.15843 v 31.06074 H 185.62758 Z m 0,52.724797 h 138.15843 v 32.29578 H 185.62758 Z m 0,53.55092 h 138.15843 v 31.88272 H 185.62758 Z m 0,53.13787 h 31.88271 v 138.15843 h -31.88271 z m 53.13786,0 h 32.29578 v 138.15843 h -32.29578 z m 53.95983,0 h 31.06074 V 323.78601 H 292.72527 Z M 26.213993,186.44955 H 164.37243 v 31.06074 H 26.213993 Z m 0,52.7248 H 164.37243 v 32.29578 H 26.213993 Z m 0,53.55092 H 164.37243 v 31.88272 H 26.213993 Z"
     transform="matrix(0.94094868,0,0,0.94094868,15.333978,15.333978)" />
  <path
     style="display:none;fill:#00524c;fill-opacity:1;stroke-linecap:round;stroke-linejoin:bevel;stroke-miterlimit:1;paint-order:stroke fill markers"
     d="m 36,-10.3125 c -25.478828,0 -46.3125,20.833672 -46.3125,46.3125 v 278 c 0,25.47883 20.833672,46.3125 46.3125,46.3125 h 278 c 25.47883,0 46.3125,-20.83367 46.3125,-46.3125 V 36 c 0,-25.478828 -20.83367,-46.3125 -46.3125,-46.3125 z m 0,20.625 h 278 c 14.40917,0 25.6875,11.278328 25.6875,25.6875 v 278 c 0,14.40917 -11.27833,25.6875 -25.6875,25.6875 H 36 C 21.590828,339.6875 10.3125,328.40917 10.3125,314 V 36 C 10.3125,21.590828 21.590828,10.3125 36,10.3125 Z"
     id="path7"
     transform="matrix(0.97133125,0,0,0.97134374,10.016997,10.01713)"
     inkscape:label="ACC_Frame" />
  <path
     style="display:none;fill:#006861;fill-opacity:1;stroke-linecap:round;stroke-linejoin:bevel;stroke-miterlimit:1;paint-order:stroke fill markers"
     d="m 36,-10.3125 c -25.478828,0 -46.3125,20.833672 -46.3125,46.3125 v 278 c 0,25.47883 20.833672,46.3125 46.3125,46.3125 h 278 c 25.47883,0 46.3125,-20.83367 46.3125,-46.3125 V 36 c 0,-25.478828 -20.83367,-46.3125 -46.3125,-46.3125 z M 58.660716,42.376954 H 291.33929 c 12.06009,0 21.49975,9.082452 21.49975,20.686175 V 286.93687 c 0,11.60373 -9.43966,20.68617 -21.49975,20.68617 H 58.660716 c -12.060092,0 -21.49975,-9.08244 -21.49975,-20.68617 V 63.063129 c 0,-11.603723 9.439658,-20.686175 21.49975,-20.686175 z"
     id="path3"
     transform="matrix(0.97133125,0,0,0.97134374,10.016997,10.01713)"
     inkscape:label="ACC_Frame_Thick"
     sodipodi:nodetypes="ssssssssssssssssss" />
  <path
     style="display:inline;fill:#006861;fill-opacity:1;stroke-linecap:round;stroke-linejoin:bevel;stroke-miterlimit:1;paint-order:stroke fill markers"
     d="m 36,-10.3125 c -25.478828,0 -46.3125,20.833672 -46.3125,46.3125 v 278 c 0,25.47883 20.833672,46.3125 46.3125,46.3125 h 278 c 25.47883,0 46.3125,-20.83367 46.3125,-46.3125 V 36 c 0,-25.478828 -20.83367,-46.3125 -46.3125,-46.3125 z m 35.78954,67.655891 h 206.42092 c 10.69912,0 19.07351,8.057502 19.07351,18.351753 V 274.30486 c 0,10.29425 -8.37439,18.35174 -19.07351,18.35174 H 71.78954 c -10.699117,0 -19.073515,-8.05749 -19.073515,-18.35174 V 75.695144 c 0,-10.294251 8.374398,-18.351753 19.073515,-18.351753 z"
     id="path4"
     transform="matrix(0.97133125,0,0,0.97134374,10.016997,10.01713)"
     inkscape:label="ACC_Frame_ExtraThick"
     sodipodi:nodetypes="ssssssssssssssssss" />
  <g
     inkscape:label="TargetGuide"
     style="display:none;fill:#ffffff;stroke:#000000;stroke-width:2"
     class="prefab"
     id="g2"
     transform="translate(-306.70711,-256)"
     sodipodi:insensitive="true">
    <path
       d="M 486.85979,256 A 179.84732,179.84732 0 0 0 307.01248,435.84732 179.84732,179.84732 0 0 0 486.85979,615.69465 179.84732,179.84732 0 0 0 666.70711,435.84732 179.84732,179.84732 0 0 0 486.85979,256 Z m 0,44.96183 A 134.88549,134.88549 0 0 1 621.74528,435.84732 134.88549,134.88549 0 0 1 486.85979,570.73281 134.88549,134.88549 0 0 1 351.97431,435.84732 134.88549,134.88549 0 0 1 486.85979,300.96183 Z m 0,44.96183 a 89.923658,89.923661 0 0 0 -89.92365,89.92366 89.923658,89.923661 0 0 0 89.92365,89.92366 89.923658,89.923661 0 0 0 89.92366,-89.92366 89.923658,89.923661 0 0 0 -89.92366,-89.92366 z m 0,44.96183 a 44.961828,44.961831 0 0 1 44.96183,44.96183 44.961828,44.961831 0 0 1 -44.96183,44.96183 44.961828,44.961831 0 0 1 -44.96182,-44.96183 44.961828,44.961831 0 0 1 44.96182,-44.96183 z"
       id="path2"
       style="display:none;vector-effect:non-scaling-stroke;fill:none;fill-opacity:1;stroke:#00349c;stroke-width:0.899238;stroke-opacity:1;-inkscape-stroke:hairline"
       inkscape:label="Circles"
       sodipodi:insensitive="true" />
  </g>
</svg>
